<svg viewBox="0 0 40 10" xmlns="http://www.w3.org/2000/svg">
	<path fill-rule="evenodd" clip-rule="evenodd" d="M14.8148 0C15.7978 0 16.6741 0.223807 17.4057 0.632799C18.1373 1.04179 18.7242 1.63597 19.1281 2.37671C19.532 3.11745 19.7531 4.00475 19.7531 5C19.7531 5.99525 19.532 6.88255 19.1281 7.62329C18.7242 8.36403 18.1373 8.95821 17.4057 9.3672C16.6741 9.77619 15.7978 10 14.8148 10C13.8319 10 12.9555 9.77619 12.2239 9.3672C11.4923 8.95821 10.9055 8.36403 10.5015 7.62329C10.0976 6.88255 9.87654 5.99525 9.87654 5C9.87654 4.00475 10.0976 3.11745 10.5015 2.37671C10.9055 1.63597 11.4923 1.04179 12.2239 0.632799C12.9555 0.223807 13.8319 0 14.8148 0ZM8.54321 0.498303H0.345679C0.154766 0.498303 0 0.655003 0 0.848303V2.65001C0 2.84331 0.154766 3.00001 0.345679 3.00001H4.83951L0.25539 7.02573C0.0931776 7.16818 0 7.37489 0 7.5923V9.15001C0 9.34331 0.154766 9.50001 0.345679 9.50001H8.54321C8.73412 9.50001 8.88889 9.34331 8.88889 9.15001V7.35001C8.88889 7.15671 8.73412 7.00001 8.54321 7.00001H4.04938L8.6335 2.97429C8.79571 2.83183 8.88889 2.62512 8.88889 2.40771V0.848303C8.88889 0.655003 8.73412 0.498303 8.54321 0.498303ZM40.0008 9.14915V0.849147C40.0008 0.655847 39.8461 0.499147 39.6552 0.499147H37.8757C37.6848 0.499147 37.53 0.655847 37.53 0.849147V5.4L33.554 0.757778C33.4133 0.593509 33.2091 0.499147 32.9944 0.499147H31.4559C31.265 0.499147 31.1103 0.655847 31.1103 0.849147V9.14915C31.1103 9.34245 31.265 9.49915 31.4559 9.49915H33.2337C33.4246 9.49915 33.5794 9.34245 33.5794 9.14915V4.6L37.5554 9.24061C37.6961 9.40482 37.9003 9.49915 38.115 9.49915H39.6552C39.8461 9.49915 40.0008 9.34245 40.0008 9.14915ZM13.503 2.80809C13.8687 2.60775 14.311 2.5 14.8148 2.5C15.3186 2.5 15.7609 2.60775 16.1267 2.80809C16.4925 3.00843 16.7818 3.30137 16.9797 3.67174C17.1775 4.04211 17.284 4.48991 17.284 5C17.284 5.51009 17.1775 5.95789 16.9797 6.32826C16.7818 6.69863 16.4925 6.99157 16.1267 7.19191C15.7609 7.39225 15.3186 7.5 14.8148 7.5C14.311 7.5 13.8687 7.39225 13.503 7.19191C13.1372 6.99157 12.8478 6.69863 12.65 6.32826C12.4521 5.95789 12.3457 5.51009 12.3457 5C12.3457 4.48991 12.4521 4.04211 12.65 3.67174C12.8478 3.30137 13.1372 3.00843 13.503 2.80809ZM25.1852 0C26.1681 0 27.0445 0.223807 27.7761 0.632799C28.5077 1.04179 29.0945 1.63597 29.4985 2.37671C29.9024 3.11745 30.1235 4.00475 30.1235 5C30.1235 5.99525 29.9024 6.88255 29.4985 7.62329C29.0945 8.36403 28.5077 8.95821 27.7761 9.3672C27.0445 9.77619 26.1681 10 25.1852 10C24.2022 10 23.3259 9.77619 22.5943 9.3672C21.8627 8.95821 21.2758 8.36403 20.8719 7.62329C20.468 6.88255 20.2469 5.99525 20.2469 5C20.2469 4.00475 20.468 3.11745 20.8719 2.37671C21.2758 1.63597 21.8627 1.04179 22.5943 0.632799C23.3259 0.223807 24.2022 0 25.1852 0ZM23.8668 2.80477C24.2326 2.60609 24.6765 2.5 25.1852 2.5C25.6939 2.5 26.1378 2.60609 26.5036 2.80477C26.8694 3.00345 27.1571 3.29472 27.3533 3.66509C27.5495 4.03546 27.6543 4.48493 27.6543 5C27.6543 5.51507 27.5495 5.96454 27.3533 6.33491C27.1571 6.70528 26.8694 6.99655 26.5036 7.19523C26.1378 7.39391 25.6939 7.5 25.1852 7.5C24.6765 7.5 24.2326 7.39391 23.8668 7.19523C23.501 6.99655 23.2133 6.70528 23.0171 6.33491C22.8208 5.96454 22.716 5.51507 22.716 5C22.716 4.48493 22.8208 4.03546 23.0171 3.66509C23.2133 3.29472 23.501 3.00345 23.8668 2.80477Z" fill="url(#paint0_linear)"/>
	<defs>
		<linearGradient id="paint0_linear" x1="30.9379" y1="2.22341" x2="8.72469" y2="2.22341" gradientUnits="userSpaceOnUse">
			<stop stop-color="#6339F5"/>
			<stop offset="1" stop-color="#3D3F55"/>
		</linearGradient>
	</defs>
</svg>
